<svg xmlns="http://www.w3.org/2000/svg" viewBox="0 0 640 220" role="img" aria-labelledby="title desc">
  <title id="title">Logo Clinica Veterinaria F y C</title>
  <desc id="desc">Logo inspirado en las letras F y C con trazos de perro, gato y cruz veterinaria.</desc>
  <defs>
    <linearGradient id="brand" x1="0" y1="0" x2="1" y2="1">
      <stop offset="0" stop-color="#14c8d6"/>
      <stop offset="0.55" stop-color="#2468d8"/>
      <stop offset="1" stop-color="#8a4ee8"/>
    </linearGradient>
    <filter id="softShadow" x="-20%" y="-20%" width="140%" height="140%">
      <feDropShadow dx="0" dy="12" stdDeviation="12" flood-color="#102f4a" flood-opacity=".16"/>
    </filter>
  </defs>
  <rect x="16" y="16" width="608" height="188" rx="38" fill="#ffffff" filter="url(#softShadow)"/>
  <circle cx="110" cy="110" r="62" fill="url(#brand)"/>
  <path d="M76 113c18-4 25-18 34-37 15 22 31 24 53 15-13 19-12 35 1 55-24-9-38-5-55 16-2-26-11-38-33-49Z" fill="#ffd33d"/>
  <path d="M80 89c20-30 59-24 77 0M102 79c2-19 15-30 35-31M141 87c7 4 12 10 14 18" fill="none" stroke="#ffffff" stroke-width="10" stroke-linecap="round"/>
  <path d="M89 130c20 18 50 18 71 1" fill="none" stroke="#ffffff" stroke-width="10" stroke-linecap="round"/>
  <text x="205" y="95" fill="#112f48" font-family="Georgia, 'Times New Roman', serif" font-size="62" font-weight="700">F y C</text>
  <text x="205" y="139" fill="#1b6ccf" font-family="Arial, Helvetica, sans-serif" font-size="25" font-weight="800" letter-spacing="5">CLINICA VETERINARIA</text>
  <text x="207" y="172" fill="#5d6877" font-family="Arial, Helvetica, sans-serif" font-size="20" font-weight="700">Dr. Félix Briones · Dra. Catherine Fuentes</text>
  <path d="M532 64h30v28h28v30h-28v28h-30v-28h-28V92h28V64Z" fill="#14c8d6"/>
</svg>
